<?xml version="1.0" encoding="UTF-8" standalone="no"?>
<!-- Filesystem icon for Local Filesystem connector -->
<svg width="800px" height="800px" viewBox="0 0 24 24" xmlns="http://www.w3.org/2000/svg" version="1.1">
 <g>
  <!-- Main folder body -->
  <path d="M20 6h-8l-2-2H4c-1.1 0-1.99.9-1.99 2L2 18c0 1.1.9 2 2 2h16c1.1 0 2-.9 2-2V8c0-1.1-.9-2-2-2z" fill="#FFA726"/>

  <!-- Folder tab/top -->
  <path d="M10 4H4c-1.1 0-1.99.9-1.99 2v12c0 1.1.9 2 2 2h16c1.1 0 2-.9 2-2V8c0-1.1-.9-2-2-2h-8l-2-2z" fill="#FFB74D"/>

  <!-- Folder front highlight -->
  <path d="M20 18H4V8h16v10z" fill="#FF9800" opacity="0.3"/>
 </g>
</svg>
